HIERARCHY
ROOT hip
{
  OFFSET 5.51535 103.731 -2.80141
  CHANNELS 6 Xposition Yposition Zposition Zrotation Xrotation Yrotation
  JOINT abdomen
  {
    OFFSET 0 -1.186 -1.5018
    CHANNELS 6 Xposition Yposition Zposition Zrotation Xrotation Yrotation
    JOINT abdomen2
    {
      OFFSET 0 9.964 0.2134
      CHANNELS 6 Xposition Yposition Zposition Zrotation Xrotation Yrotation
      JOINT chest
      {
        OFFSET 0 13.134 -3.2573
        CHANNELS 6 Xposition Yposition Zposition Zrotation Xrotation Yrotation
        JOINT neck
        {
          OFFSET 0 20.686 -1.6905
          CHANNELS 6 Xposition Yposition Zposition Zrotation Xrotation Yrotation
          JOINT head
          {
            OFFSET 0 7.23801 -0.1237
            CHANNELS 6 Xposition Yposition Zposition Zrotation Xrotation Yrotation
            End Site
            {
              OFFSET 0 0 0
            }
          }
        }
        JOINT lCollar
        {
          OFFSET 1.7069 20.075 5.0056
          CHANNELS 6 Xposition Yposition Zposition Zrotation Xrotation Yrotation
          JOINT lShldr
          {
            OFFSET 13.6458 -0.0470195 -4.849
            CHANNELS 6 Xposition Yposition Zposition Zrotation Xrotation Yrotation
            JOINT lForeArm
            {
              OFFSET 28.3255 -0.97589 2.2888
              CHANNELS 6 Xposition Yposition Zposition Zrotation Xrotation Yrotation
              JOINT lHand
              {
                OFFSET 22.1583 -0.529998 10.8316
                CHANNELS 6 Xposition Yposition Zposition Zrotation Xrotation Yrotation
                JOINT lThumb1
                {
                  OFFSET 0.786 0.111997 2.5817
                  CHANNELS 6 Xposition Yposition Zposition Zrotation Xrotation Yrotation
                  JOINT lThumb2
                  {
                    OFFSET 0.360097 -0.877999 4.2331
                    CHANNELS 6 Xposition Yposition Zposition Zrotation Xrotation Yrotation
                    JOINT lThumb2_End
                    {
                      OFFSET 1.8127 -1.21601 2.2227
                      CHANNELS 6 Xposition Yposition Zposition Zrotation Xrotation Yrotation
                      End Site
                      {
                        OFFSET 0.0180981 -0.012195 0.0222007
                      }
                    }
                  }
                }
                JOINT lCarpal1
                {
                  OFFSET 0.9571 1.114 1.7695
                  CHANNELS 6 Xposition Yposition Zposition Zrotation Xrotation Yrotation
                  JOINT lIndex1
                  {
                    OFFSET 4.12461 0.486992 4.1451
                    CHANNELS 6 Xposition Yposition Zposition Zrotation Xrotation Yrotation
                    JOINT lIndex2
                    {
                      OFFSET 3.4052 -1.45401 2.7682
                      CHANNELS 6 Xposition Yposition Zposition Zrotation Xrotation Yrotation
                      JOINT lIndex2_End
                      {
                        OFFSET 1.45309 -1.79499 1.2713
                        CHANNELS 6 Xposition Yposition Zposition Zrotation Xrotation Yrotation
                        End Site
                        {
                          OFFSET 0.0144979 -0.0179083 0.0126995
                        }
                      }
                    }
                  }
                  JOINT lMid1
                  {
                    OFFSET 5.6954 0.209987 2.1184
                    CHANNELS 6 Xposition Yposition Zposition Zrotation Xrotation Yrotation
                    JOINT lMid2
                    {
                      OFFSET 3.9766 -1.53999 2.3863
                      CHANNELS 6 Xposition Yposition Zposition Zrotation Xrotation Yrotation
                      JOINT lMid2_End
                      {
                        OFFSET 1.4042 -1.926 1.125
                        CHANNELS 6 Xposition Yposition Zposition Zrotation Xrotation Yrotation
                        End Site
                        {
                          OFFSET 0.013999 -0.0193044 0.011301
                        }
                      }
                    }
                  }
                }
                JOINT lCarpal2
                {
                  OFFSET 2.0956 0.66 -0.3894
                  CHANNELS 6 Xposition Yposition Zposition Zrotation Xrotation Yrotation
                  JOINT lRing1
                  {
                    OFFSET 5.0395 -0.090013 2.4971
                    CHANNELS 6 Xposition Yposition Zposition Zrotation Xrotation Yrotation
                    JOINT lRing2
                    {
                      OFFSET 3.7921 -1.55199 1.4806
                      CHANNELS 6 Xposition Yposition Zposition Zrotation Xrotation Yrotation
                      JOINT lRing2_End
                      {
                        OFFSET 1.4655 -1.808 0.9609
                        CHANNELS 6 Xposition Yposition Zposition Zrotation Xrotation Yrotation
                        End Site
                        {
                          OFFSET 0.0147015 -0.0181014 0.00959957
                        }
                      }
                    }
                  }
                  JOINT lPinky1
                  {
                    OFFSET 4.9141 -1.269 0.3591
                    CHANNELS 6 Xposition Yposition Zposition Zrotation Xrotation Yrotation
                    JOINT lPinky2
                    {
                      OFFSET 3.1477 -1.685 0.8462
                      CHANNELS 6 Xposition Yposition Zposition Zrotation Xrotation Yrotation
                      JOINT lPinky2_End
                      {
                        OFFSET 0.805498 -1.58501 0.795499
                        CHANNELS 6 Xposition Yposition Zposition Zrotation Xrotation Yrotation
                        End Site
                        {
                          OFFSET 0.00809703 -0.0157944 0.00799848
                        }
                      }
                    }
                  }
                }
              }
            }
          }
        }
        JOINT rCollar
        {
          OFFSET -1.7069 20.075 5.0056
          CHANNELS 6 Xposition Yposition Zposition Zrotation Xrotation Yrotation
          JOINT rShldr
          {
            OFFSET -13.6458 -0.0470107 -4.849
            CHANNELS 6 Xposition Yposition Zposition Zrotation Xrotation Yrotation
            JOINT rForeArm
            {
              OFFSET -28.3255 -0.975895 2.2888
              CHANNELS 6 Xposition Yposition Zposition Zrotation Xrotation Yrotation
              JOINT rHand
              {
                OFFSET -22.1583 -0.530007 10.8316
                CHANNELS 6 Xposition Yposition Zposition Zrotation Xrotation Yrotation
                JOINT rThumb1
                {
                  OFFSET -0.785997 0.112005 2.5817
                  CHANNELS 6 Xposition Yposition Zposition Zrotation Xrotation Yrotation
                  JOINT rThumb2
                  {
                    OFFSET -0.360106 -0.877994 4.2331
                    CHANNELS 6 Xposition Yposition Zposition Zrotation Xrotation Yrotation
                    JOINT rThumb2_End
                    {
                      OFFSET -1.8127 -1.216 2.2227
                      CHANNELS 6 Xposition Yposition Zposition Zrotation Xrotation Yrotation
                      End Site
                      {
                        OFFSET -0.0180972 -0.0121973 0.0222005
                      }
                    }
                  }
                }
                JOINT rCarpal1
                {
                  OFFSET -0.9571 1.114 1.7695
                  CHANNELS 6 Xposition Yposition Zposition Zrotation Xrotation Yrotation
                  JOINT rIndex1
                  {
                    OFFSET -4.1246 0.487011 4.1451
                    CHANNELS 6 Xposition Yposition Zposition Zrotation Xrotation Yrotation
                    JOINT rIndex2
                    {
                      OFFSET -3.4052 -1.45401 2.7682
                      CHANNELS 6 Xposition Yposition Zposition Zrotation Xrotation Yrotation
                      JOINT rIndex2_End
                      {
                        OFFSET -1.4531 -1.795 1.2713
                        CHANNELS 6 Xposition Yposition Zposition Zrotation Xrotation Yrotation
                        End Site
                        {
                          OFFSET -0.0145077 -0.0180048 0.0127017
                        }
                      }
                    }
                  }
                  JOINT rMid1
                  {
                    OFFSET -5.6954 0.210002 2.1184
                    CHANNELS 6 Xposition Yposition Zposition Zrotation Xrotation Yrotation
                    JOINT rMid2
                    {
                      OFFSET -3.9766 -1.54 2.3863
                      CHANNELS 6 Xposition Yposition Zposition Zrotation Xrotation Yrotation
                      JOINT rMid2_End
                      {
                        OFFSET -1.4042 -1.926 1.125
                        CHANNELS 6 Xposition Yposition Zposition Zrotation Xrotation Yrotation
                        End Site
                        {
                          OFFSET -0.0139948 -0.0192916 0.0112994
                        }
                      }
                    }
                  }
                }
                JOINT rCarpal2
                {
                  OFFSET -2.0956 0.66 -0.3894
                  CHANNELS 6 Xposition Yposition Zposition Zrotation Xrotation Yrotation
                  JOINT rRing1
                  {
                    OFFSET -5.03951 -0.0899879 2.4971
                    CHANNELS 6 Xposition Yposition Zposition Zrotation Xrotation Yrotation
                    JOINT rRing2
                    {
                      OFFSET -3.7921 -1.55201 1.4806
                      CHANNELS 6 Xposition Yposition Zposition Zrotation Xrotation Yrotation
                      JOINT rRing2_End
                      {
                        OFFSET -1.4655 -1.808 0.960901
                        CHANNELS 6 Xposition Yposition Zposition Zrotation Xrotation Yrotation
                        End Site
                        {
                          OFFSET -0.0146934 -0.0180999 0.00959832
                        }
                      }
                    }
                  }
                  JOINT rPinky1
                  {
                    OFFSET -4.91411 -1.26899 0.359202
                    CHANNELS 6 Xposition Yposition Zposition Zrotation Xrotation Yrotation
                    JOINT rPinky2
                    {
                      OFFSET -3.14769 -1.68501 0.846199
                      CHANNELS 6 Xposition Yposition Zposition Zrotation Xrotation Yrotation
                      JOINT rPinky2_End
                      {
                        OFFSET -0.805498 -1.585 0.7955
                        CHANNELS 6 Xposition Yposition Zposition Zrotation Xrotation Yrotation
                        End Site
                        {
                          OFFSET -0.00810035 -0.0158035 0.00800029
                        }
                      }
                    }
                  }
                }
              }
            }
          }
        }
      }
    }
  }
  JOINT lThigh
  {
    OFFSET 8.367 -8.2066 0.5982
    CHANNELS 6 Xposition Yposition Zposition Zrotation Xrotation Yrotation
    JOINT lShin
    {
      OFFSET 2.1923 -43.463 -0.4932
      CHANNELS 6 Xposition Yposition Zposition Zrotation Xrotation Yrotation
      JOINT lFoot
      {
        OFFSET 0.733301 -45.8593 -2.6451
        CHANNELS 6 Xposition Yposition Zposition Zrotation Xrotation Yrotation
        End Site
        {
          OFFSET 2.6618 -4.2699 12.3931
        }
      }
    }
  }
  JOINT rThigh
  {
    OFFSET -8.367 -8.2066 0.5982
    CHANNELS 6 Xposition Yposition Zposition Zrotation Xrotation Yrotation
    JOINT rShin
    {
      OFFSET -2.1923 -43.463 -0.4931
      CHANNELS 6 Xposition Yposition Zposition Zrotation Xrotation Yrotation
      JOINT rFoot
      {
        OFFSET -0.733299 -45.8593 -2.6451
        CHANNELS 6 Xposition Yposition Zposition Zrotation Xrotation Yrotation
        End Site
        {
          OFFSET -2.6618 -4.2699 12.3931
        }
      }
    }
  }
}
MOTION
Frames:	4
Frame Time:	0.0333333
-8.79895 54.9027 -27.3836 3.94535 -6.70974 -44.3541 1.04032e-006 -1.186 -1.5018 -2.17591 0.280218 2.93806 7.83207e-007 9.964 0.213401 -4.36337 0.448359 5.88465 2.46624e-007 13.134 -3.2573 -4.36338 0.448358 5.88466 1.28796e-005 20.6861 -1.69051 17.2394 12.7217 41.1731 -1.25128e-005 7.23803 -0.123705 -14.2294 17.1644 27.8251 1.7069 20.075 5.0056 26.8413 2.42656 -4.62584 13.6458 -0.047013 -4.849 -53.2436 -13.2504 -54.9551 28.3255 -0.975888 2.28878 -44.7163 17.572 -92.4734 22.1583 -0.529989 10.8316 8.76058 -35.1388 4.56803 0.786004 0.111997 2.5817 22.8744 47.3543 -18.5009 0.360097 -0.878 4.2331 -1.87358 -0.16836 -3.42717 1.8127 -1.21601 2.2227 6.48487 1.48414 12.0601 0.9571 1.114 1.7695 -2.48481e-016 -3.97569e-016 1.34801e-015 4.1246 0.486993 4.1451 23.6612 -1.45057 9.77013 3.4052 -1.45401 2.7682 -32.7933 9.60194 15.9649 1.4531 -1.79499 1.2713 -37.4308 10.1389 18.4808 5.6954 0.209987 2.11841 6.38891 1.42774 6.61845 3.9766 -1.53999 2.3863 -43.8283 12.1761 22.7531 1.4042 -1.926 1.125 -29.8317 10.374 14.814 2.0956 0.66 -0.3894 -2.48481e-016 -3.97569e-016 1.34801e-015 5.0395 -0.0900132 2.4971 -9.8609 -1.37506 6.39548 3.7921 -1.55199 1.4806 -25.9685 10.0895 14.2106 1.4655 -1.808 0.960901 -27.2436 10.3903 14.978 4.9141 -1.269 0.359101 -12.4528 -3.08833 3.59594 3.1477 -1.685 0.846202 -21.9998 9.80355 11.8163 0.805499 -1.58501 0.795498 -19.7911 9.08288 10.5233 -1.7069 20.075 5.0056 -25.0759 -0.153708 27.7832 -13.6458 -0.0470204 -4.84901 24.0793 -50.6586 40.1337 -28.3255 -0.97588 2.28881 34.1132 -14.2438 93.6439 -22.1583 -0.530009 10.8316 -64.3961 -35.2493 -70.2275 -0.786 0.112006 2.5817 -28.3003 37.7047 33.2376 -0.360111 -0.877992 4.23311 2.20512 -1.70349 6.43536 -1.8127 -1.216 2.2227 -4.43251 5.02616 -15.261 -0.9571 1.114 1.7695 1.10348e-031 -1.98785e-015 3.18055e-015 -4.1246 0.487014 4.1451 4.78349 6.28975 -12.4086 -3.4052 -1.45401 2.76819 43.2683 10.6585 -10.4537 -1.4531 -1.79499 1.27131 45.4776 10.9507 -11.1599 -5.69541 0.21 2.11841 5.1014 2.38173 -3.99267 -3.9766 -1.54 2.3863 52.3089 13.53 -14.1044 -1.4042 -1.926 1.125 21.5142 7.26029 -4.33239 -2.0956 0.66 -0.3894 1.10348e-031 -1.98785e-015 3.18055e-015 -5.03951 -0.0899871 2.49711 15.0093 -0.163058 -5.40115 -3.7921 -1.55201 1.48061 24.7696 8.8232 -6.38501 -1.4655 -1.808 0.960906 26.3353 9.26487 -6.89828 -4.91411 -1.26899 0.359205 0.554186 -6.40219 -4.57878 -3.1477 -1.68501 0.846204 26.8328 10.24 -6.92243 -0.805502 -1.585 0.795505 18.7882 7.59281 -4.38782 8.367 -8.2066 0.598201 21.6696 -0.0993609 17.0309 2.19229 -43.463 -0.493206 -174.479 82.3888 174.264 0.733296 -45.8593 -2.6451 2.625 24.6937 -34.0467 -8.36701 -8.2066 0.598198 -30.7081 10.7487 -1.66928 -2.1923 -43.463 -0.493105 100.637 71.9808 -88.5367 -0.733309 -45.8593 -2.64511 -11.2897 1.17671 6.81847 
-7.78119 53.686 -27.8816 3.94028 -5.96334 -45.1424 -2.42792e-007 -1.186 -1.5018 -2.1502 0.301557 2.66785 6.5391e-007 9.964 0.2134 -4.31219 0.50251 5.34534 1.06802e-006 13.134 -3.2573 -4.31219 0.502511 5.34532 8.57289e-006 20.686 -1.69051 17.617 12.2827 41.8671 -1.20624e-005 7.23801 -0.123705 -13.728 17.2404 27.8682 1.7069 20.075 5.0056 26.4599 2.5701 -4.50861 13.6458 -0.0470142 -4.849 -52.8876 -13.9791 -55.7282 28.3255 -0.975892 2.2888 -45.0192 17.2293 -91.9938 22.1583 -0.529991 10.8316 10.7407 -33.5924 5.35868 0.786003 0.111997 2.5817 22.6015 47.6171 -17.9598 0.360098 -0.877997 4.2331 -1.74522 -0.160436 -3.19271 1.8127 -1.21601 2.2227 6.48486 1.48414 12.0601 0.9571 1.114 1.7695 -1.18028e-016 0 3.84291e-015 4.1246 0.486992 4.1451 24.4408 -1.66773 9.79264 3.4052 -1.45401 2.7682 -32.6909 9.58778 15.9097 1.4531 -1.79499 1.2713 -37.4308 10.1389 18.4808 5.6954 0.209987 2.1184 6.60516 1.48746 6.76115 3.9766 -1.53999 2.3863 -43.8283 12.1762 22.7531 1.4042 -1.926 1.125 -30.4432 10.4936 15.1534 2.0956 0.66 -0.3894 -1.18028e-016 0 3.84291e-015 5.0395 -0.0900126 2.4971 -9.9007 -1.35933 6.41248 3.7921 -1.55199 1.4806 -26.3085 10.1714 14.4149 1.4655 -1.808 0.9609 -27.5676 10.4637 15.1737 4.9141 -1.269 0.359104 -13.1125 -2.87817 3.69738 3.1477 -1.685 0.8462 -22.103 9.83631 11.8773 0.805499 -1.58501 0.795498 -20.1147 9.18271 10.7088 -1.7069 20.075 5.0056 -25.6825 -0.429663 28.5451 -13.6458 -0.0470153 -4.849 24.3432 -50.8468 39.2922 -28.3255 -0.975882 2.28881 34.107 -14.5655 94.347 -22.1583 -0.530005 10.8316 -64.056 -35.9929 -70.3035 -0.786004 0.112003 2.58171 -28.4546 37.3297 33.5881 -0.360105 -0.877994 4.2331 2.28674 -1.75923 6.66468 -1.81269 -1.216 2.2227 -4.43203 5.02607 -15.2607 -0.9571 1.114 1.7695 -1.59028e-015 -1.59028e-015 -0 -4.12461 0.487011 4.14511 5.60008 6.34966 -12.3925 -3.4052 -1.45401 2.7682 43.377 10.6735 -10.4881 -1.4531 -1.795 1.27129 45.4776 10.9508 -11.1599 -5.69541 0.21 2.11841 5.27976 2.29859 -3.82698 -3.9766 -1.54 2.38631 52.3089 13.5301 -14.1044 -1.4042 -1.926 1.12499 20.89 7.07825 -4.17147 -2.0956 0.66 -0.3894 -1.59028e-015 -1.59028e-015 -0 -5.03951 -0.0899886 2.49711 14.9672 -0.175538 -5.39404 -3.7921 -1.55201 1.4806 24.4234 8.72363 -6.27282 -1.4655 -1.808 0.960901 25.9962 9.17073 -6.78605 -4.91411 -1.26899 0.359201 -0.11888 -6.60218 -4.70594 -3.1477 -1.68501 0.846198 26.7293 10.2086 -6.88773 -0.805499 -1.585 0.795496 18.4637 7.47759 -4.29291 8.367 -8.2066 0.5982 22.3473 -0.232271 17.3691 2.1923 -43.463 -0.493197 -175.214 81.2925 175.008 0.733296 -45.8593 -2.64509 3.15045 24.6747 -34.5059 -8.36701 -8.20661 0.598201 -31.0165 10.6769 -1.87327 -2.19229 -43.463 -0.493105 102.177 71.7141 -89.5474 -0.7333 -45.8593 -2.6451 -12.494 0.740782 5.87935 
-6.82967 52.5509 -28.5749 3.94716 -4.89474 -46.0208 -7.99456e-007 -1.186 -1.5018 -2.12271 0.313478 2.38994 4.77777e-007 9.964 0.2134 -4.25672 0.537968 4.79004 -1.05713e-006 13.134 -3.2573 -4.25672 0.537968 4.79005 -4.85786e-007 20.686 -1.6905 18.0625 11.714 42.6196 3.82402e-006 7.23803 -0.123703 -13.333 17.218 27.8602 1.7069 20.075 5.0056 26.0492 2.74173 -4.31581 13.6458 -0.0470123 -4.849 -52.378 -14.9529 -56.4038 28.3255 -0.975896 2.2888 -45.3805 17.0258 -91.6194 22.1583 -0.529983 10.8316 12.6327 -31.9339 6.12638 0.786003 0.111997 2.5817 22.3315 47.8692 -17.4311 0.360098 -0.877999 4.2331 -1.6266 -0.152635 -2.97602 1.8127 -1.21601 2.2227 6.48487 1.48415 12.0601 0.9571 1.114 1.7695 3.47873e-016 7.95139e-016 -6.39838e-016 4.1246 0.486992 4.1451 25.1943 -1.87944 9.81998 3.4052 -1.454 2.7682 -32.5885 9.57354 15.8546 1.4531 -1.79499 1.2713 -37.4308 10.1389 18.4808 5.6954 0.209988 2.1184 6.82128 1.54776 6.90361 3.9766 -1.53999 2.3863 -43.8284 12.1762 22.7531 1.4042 -1.926 1.125 -31.0165 10.6022 15.4724 2.0956 0.66 -0.3894 3.47873e-016 7.95139e-016 -6.39838e-016 5.0395 -0.0900126 2.4971 -9.94051 -1.34356 6.4295 3.7921 -1.55199 1.4806 -26.6272 10.2469 14.6066 1.4655 -1.808 0.9609 -27.8919 10.5361 15.3699 4.9141 -1.269 0.3591 -13.7427 -2.68272 3.79743 3.1477 -1.685 0.8462 -22.2062 9.86898 11.9384 0.805499 -1.58501 0.795498 -20.4153 9.28444 10.8846 -1.7069 20.075 5.0056 -26.2649 -0.700624 29.3391 -13.6458 -0.047019 -4.849 24.4063 -51.1562 38.3471 -28.3255 -0.975894 2.2888 34.1629 -14.8502 95.2281 -22.1583 -0.530008 10.8316 -63.9911 -36.7081 -70.4067 -0.786003 0.112005 2.5817 -28.5969 36.9735 33.91 -0.360103 -0.877994 4.2331 2.36593 -1.81287 6.88672 -1.81269 -1.216 2.2227 -4.43156 5.02598 -15.2604 -0.9571 1.114 1.7695 0 3.18055e-015 -0 -4.12461 0.487013 4.1451 6.39163 6.40365 -12.379 -3.4052 -1.45401 2.7682 43.4857 10.6884 -10.5227 -1.4531 -1.795 1.2713 45.4775 10.9507 -11.1599 -5.6954 0.210002 2.1184 5.45833 2.21594 -3.66106 -3.9766 -1.54 2.38631 52.3089 13.53 -14.1044 -1.4042 -1.926 1.125 20.3049 6.90586 -4.02237 -2.0956 0.66 -0.3894 0 3.18055e-015 -0 -5.03951 -0.089988 2.4971 14.9252 -0.188019 -5.38694 -3.7921 -1.552 1.4806 24.0871 8.62622 -6.16439 -1.4655 -1.80801 0.960896 25.6719 9.08 -6.67916 -4.91411 -1.26899 0.3592 -0.770015 -6.79764 -4.83282 -3.14769 -1.68501 0.846194 26.6258 10.1771 -6.85308 -0.805498 -1.585 0.795497 18.1543 7.36712 -4.20297 8.367 -8.20659 0.598204 23.5879 -0.660008 17.994 2.1923 -43.463 -0.493201 -175.83 80.0304 175.607 0.733303 -45.8593 -2.64507 3.6637 24.6473 -34.6598 -8.367 -8.2066 0.598199 -31.274 10.0886 -2.40265 -2.1923 -43.463 -0.493091 104.628 71.3514 -91.5015 -0.733294 -45.8593 -2.64511 -13.5307 0.539968 5.28629 
-5.80448 51.5239 -29.2701 4.04267 -3.69882 -47.165 -2.3644e-007 -1.186 -1.5018 -2.03113 0.300782 2.14365 5.76673e-008 9.964 0.2134 -4.07217 0.525217 4.29668 -6.15986e-007 13.134 -3.2573 -4.07216 0.525216 4.29669 -1.11848e-006 20.686 -1.6905 18.3865 11.1983 43.4012 -9.27384e-006 7.23803 -0.1237 -13.1305 17.3042 27.8294 1.7069 20.075 5.0056 25.7262 2.93571 -4.06361 13.6458 -0.0470122 -4.849 -51.9736 -15.8482 -56.5049 28.3255 -0.975896 2.2888 -45.8624 17.1277 -91.5171 22.1583 -0.52999 10.8316 14.4134 -30.0864 6.52036 0.786003 0.111997 2.5817 22.066 48.1097 -16.9171 0.360096 -0.878 4.2331 -1.50802 -0.144378 -2.75935 1.8127 -1.21601 2.2227 6.48487 1.48413 12.0601 0.9571 1.114 1.7695 -1.98785e-016 0 -2.42269e-015 4.1246 0.486993 4.14511 25.9189 -2.08463 9.85152 3.4052 -1.45401 2.7682 -32.4975 9.56078 15.8056 1.4531 -1.79499 1.2713 -37.4308 10.1389 18.4808 5.6954 0.209988 2.1184 7.01785 1.60253 7.03435 3.9766 -1.53999 2.3863 -43.8284 12.1761 22.7531 1.4042 -1.926 1.125 -31.5907 10.7078 15.7926 2.0956 0.66 -0.3894 -1.98785e-016 0 -2.42269e-015 5.0395 -0.0900128 2.4971 -9.98035 -1.32786 6.44654 3.7921 -1.55199 1.4806 -26.9462 10.3214 14.7988 1.4655 -1.808 0.9609 -28.1928 10.6022 15.5521 4.9141 -1.269 0.359104 -14.3501 -2.49797 3.89641 3.1477 -1.685 0.846204 -22.3095 9.90154 11.9996 0.805499 -1.58501 0.795499 -20.7164 9.38524 11.0609 -1.7069 20.075 5.0056 -26.8153 -0.966041 30.1496 -13.6458 -0.047009 -4.84901 24.3861 -51.5295 37.8248 -28.3255 -0.975898 2.28879 34.1488 -14.909 95.7993 -22.1583 -0.530002 10.8316 -64.1125 -37.4028 -70.5174 -0.786001 0.112007 2.5817 -28.7361 36.6166 34.2293 -0.36011 -0.877993 4.2331 2.44187 -1.86391 7.09919 -1.8127 -1.216 2.2227 -4.43108 5.02591 -15.2601 -0.9571 1.114 1.7695 0 0 -0 -4.12461 0.487015 4.1451 7.15511 6.45146 -12.3676 -3.4052 -1.45401 2.7682 43.5779 10.701 -10.5519 -1.4531 -1.79499 1.2713 45.4775 10.9507 -11.1599 -5.6954 0.210004 2.1184 5.63717 2.13384 -3.49488 -3.9766 -1.54 2.38629 52.3089 13.53 -14.1044 -1.4042 -1.926 1.125 19.7206 6.73198 -3.8751 -2.0956 0.66 -0.3894 0 0 -0 -5.03951 -0.0899851 2.4971 14.8831 -0.200524 -5.37985 -3.7921 -1.55201 1.4806 23.7619 8.53134 -6.06003 -1.4655 -1.808 0.960896 25.3478 8.98868 -6.57283 -4.91411 -1.26899 0.359209 -1.39674 -6.98782 -4.95866 -3.1477 -1.68501 0.846198 26.5223 10.1456 -6.81848 -0.805501 -1.585 0.795504 17.8451 7.25619 -4.11365 8.367 -8.2066 0.598203 24.962 -1.1418 19.1298 2.1923 -43.4631 -0.493198 -176.395 78.6864 176.209 0.733319 -45.8593 -2.64512 4.26254 24.541 -34.4868 -8.36701 -8.2066 0.598194 -31.8187 9.00956 -2.69219 -2.19229 -43.463 -0.493096 107.645 70.8779 -94.0243 -0.7333 -45.8593 -2.64509 -14.1156 0.419281 5.56143 
